<?xml version="1.0" encoding="UTF-8"?>
<svg width="800" height="400" viewBox="0 0 800 400" xmlns="http://www.w3.org/2000/svg">
  <path
    d="M 200,300 
       C 250,300 300,250 300,200
       L 300,150
       C 300,100 350,50 400,50
       C 450,50 500,100 500,150
       L 500,200
       C 500,250 550,300 600,300
       L 650,300
       C 700,300 750,250 750,200
       L 750,150
       C 750,100 700,50 650,50
       L 600,50
       C 550,50 500,100 500,150
       L 500,200
       C 500,250 450,300 400,300
       C 350,300 300,250 300,200
       L 300,150
       C 300,100 250,50 200,50
       L 150,50
       C 100,50 50,100 50,150
       L 50,200
       C 50,250 100,300 150,300
       Z"
    fill="none"
    stroke="#333333"
    stroke-width="4"
  />
  <!-- Start/Finish Line -->
  <line x1="380" y1="290" x2="420" y2="290" stroke="#FF0000" stroke-width="4"/>
  <!-- Direction Arrow -->
  <path d="M 400,320 L 420,340 L 380,340 Z" fill="#333333"/>
</svg> 